<svg xmlns="http://www.w3.org/2000/svg" viewBox="0 0 24 24" fill="currentColor"><path d="M12.982.333c-.225-.01-.453 0-.678.01a.756.756 0 00-.585.195c-1.61 1.258-3.333 3.32-3.333 5.344 0 1.94 1.157 3.12 2.724 3.12.75 0 1.228-.27 1.63-.728.322-.358.5-.72.637-1.185.106-.39.18-1.02.18-1.46a2.8 2.8 0 01.03-1.066c.03-.306.07-.585.123-.847.052-.26.11-.5.18-.707.13-.39.29-.69.5-.89.21-.2.46-.3.75-.3s.54.1.75.3c.21.2.37.5.5.89.07.207.128.447.18.708.053.26.094.54.125.846a2.8 2.8 0 01.03 1.066c0 .44.073 1.07.18 1.46.136.465.315.827.637 1.185.402.458.88.728 1.63.728 1.567 0 2.724-1.18 2.724-3.12 0-2.023-1.723-4.086-3.333-5.344a.756.756 0 00-.585-.195c-.225-.01-.453-.01-.678-.01M22.25 15.5c-1.385-1.04-3.08-1.87-4.88-2.39a.747.747 0 00-.86.33c-.24.44-.65.73-1.01.73-.32 0-.6-.2-.79-.53a.75.75 0 00-.83-.34c-1.8.52-3.5.52-5.3 0a.75.75 0 00-.83.34c-.19.33-.47.53-.79.53-.36 0-.77-.29-1.01-.73a.747.747 0 00-.86-.33c-1.8.52-3.5 1.35-4.88 2.39a.75.75 0 00-.25.59v2.16c0 .35.22.66.55.73 1.58.33 3.2.38 4.79.13.15-.02.28-.15.28-.3 0-.19-.13-.34-.3-.34-1.38.22-2.8.17-4.1-.14v-1.4c1.42-.92 2.92-1.62 4.5-2.07.38-.1.76.16.85.53.13.51.68.94 1.4.94.72 0 1.27-.43 1.4-.94.09-.37.47-.63.85-.53 1.83.47 3.55.47 5.38 0 .38-.1.76.16.85.53.13.51.68.94 1.4.94.72 0 1.27-.43 1.4-.94.09-.37.47-.63.85-.53 1.58.45 3.08 1.15 4.5 2.07v1.4c-1.3.3-2.72.36-4.1.13-.17 0-.3.15-.3.34 0 .15.13.28.28.3 1.58.25 3.2.2 4.79-.13a.748.748 0 00.55-.73v-2.16a.75.75 0 00-.25-.59"/></svg>