<svg xmlns="http://www.w3.org/2000/svg" viewBox="0 0 256 256"><path fill="#232F3E" d="M0 0h256v256H0z"/><path fill="#FF9900" d="M56.4 163.9c-2.4 0-4.3-1.9-4.3-4.3v-51c0-2.4 1.9-4.3 4.3-4.3h22.9c12.3 0 22.3 10 22.3 22.3v10.7c0 12.3-10 22.3-22.3 22.3H56.4zm14-43.2H61v30.5h9.4c7.4 0 13.4-6 13.4-13.4v-3.7c0-7.4-6-13.4-13.4-13.4zM108 104.3c-2.4 0-4.3-1.9-4.3-4.3V49c0-2.4 1.9-4.3 4.3-4.3h51c2.4 0 4.3 1.9 4.3 4.3v51c0 2.4-1.9 4.3-4.3 4.3H108zm4.3-46.9v38.2h42.3V57.4h-42.3zM180.7 163.9c-12.3 0-22.3-10-22.3-22.3v-10.7c0-12.3 10-22.3 22.3-22.3h22.9c2.4 0 4.3 1.9 4.3 4.3v51c0 2.4-1.9 4.3-4.3 4.3h-22.9zm-9.4-29.9c0 7.4 6 13.4 13.4 13.4h9.4v-30.5h-9.4c-7.4 0-13.4 6-13.4 13.4v3.7z"/></svg>