<svg xmlns="http://www.w3.org/2000/svg" viewBox="0 0 256 256"><path fill="#21205F" d="M128 0C57.3 0 0 57.3 0 128s57.3 128 128 128 128-57.3 128-128S198.7 0 128 0z"/><path fill="#fff" d="M128 44.5 44.5 128l83.5 83.5L211.5 128 128 44.5z"/><path fill="#A5C63B" d="m128 44.5 41.7 41.8-41.7 41.7-41.8-41.7L128 44.5z"/><path fill="#8CC53E" d="m128 128 41.7 41.8-41.7 41.7-41.8-41.7 41.8-41.8z"/><path fill="#00865A" d="M86.2 86.2 44.5 128l41.7 41.8 41.8-41.8-41.7-41.7z"/><path fill="#009688" d="m169.8 86.2-41.8 41.8 41.8 41.8 41.7-41.8-41.7-41.8z"/></svg>