<svg xmlns="http://www.w3.org/2000/svg" viewBox="0 0 256 256"><path fill="#0080FF" d="M128 0C57.3 0 0 57.3 0 128s57.3 128 128 128 128-57.3 128-128S198.7 0 128 0zM74.7 181.3H53.3V74.7h21.4v106.6zm-42.6 0H32V74.7h.1v106.6zM202.7 128c0 41.2-33.5 74.7-74.7 74.7-41.2 0-74.7-33.5-74.7-74.7S86.8 53.3 128 53.3c41.2 0 74.7 33.5 74.7 74.7z"/><path fill="#fff" d="M128 74.7c-29.4 0-53.3 23.9-53.3 53.3s23.9 53.3 53.3 53.3 53.3-23.9 53.3-53.3-23.9-53.3-53.3-53.3zm0 85.3c-17.7 0-32-14.3-32-32s14.3-32 32-32 32 14.3 32 32-14.3 32-32 32z"/></svg>