<svg xmlns="http://www.w3.org/2000/svg" viewBox="0 0 256 256"><path fill="#2496ED" d="M249.4 96.1c-4.4-1.1-13.9-2.5-22.3-3.2-1.9-.2-3.8-.3-5.7-.4-8.5-3.6-17.7-5.5-27.4-5.5-12.7 0-24.8 3.2-35.4 8.7-2.6 1.3-5.1 2.8-7.5 4.3-1.6.9-3.2 1.9-4.7 2.9h-1.9c-1.3-.8-2.6-1.5-3.9-2.2-1.5-.8-3-1.6-4.5-2.4-10-5.5-21.5-8.3-33.6-8.3-11.2 0-21.9 2.5-31.6 6.9-10.4 4.7-19 11.5-25.1 19.8-11.3 15.3-17.2 34.5-17.2 55 0 2.2.1 4.5.4 6.7 1 8.5 3.3 16.6 6.7 24.1 4.2 9.1 9.9 16.9 16.7 23.3 7.8 7.3 17 12.9 27.2 16.4 1.2.4 2.5.8 3.7 1.2.7.2 1.4.4 2.1.6 3.9 1.4 8 2.5 12.1 3.4 9.1 1.9 18.6 2.9 28.3 2.9 13.3 0 26-2.9 37.3-8.1 1.9-.9 3.8-1.8 5.6-2.8l.2-.1c1.2-.7 2.4-1.4 3.5-2.2.3-.2.6-.4.9-.6.7-.4 1.3-.9 2-1.3.1 0 .1-.1.2-.1 1.1-.7 2.2-1.4 3.3-2.1.6-.4 1.1-.8 1.7-1.2l.2-.2c9.5-6.5 17.1-15.6 21.8-26.2 3-6.9 4.7-14.5 4.7-22.5 0-9.2-2.1-17.9-6-25.5-4.4-8.4-10.4-15.5-17.6-20.9-2.6-1.9-5.3-3.6-8.2-5.1zM58.3 103.9h23.9v23.9H58.3v-23.9zm31.8 0h23.9v23.9H90.1v-23.9zm31.8 0h23.9v23.9h-23.9v-23.9zm-63.7-31.8h23.9v23.9H58.3v-23.9zm31.8 0h23.9v23.9H90.1v-23.9zm31.8 0h23.9v23.9h-23.9v-23.9zm31.9 0h23.9v23.9h-23.9v-23.9zm-31.9-31.8h23.9v23.9h-23.9v-23.9z"/></svg>