<svg xmlns="http://www.w3.org/2000/svg" viewBox="0 0 24 24" fill="currentColor"><path d="M21.103 6.333c-1.107-.42-2.115-1.06-3.033-1.89l-2.203-1.98C14.73 1.597 13.398.8 11.998.8c-1.54 0-2.91.95-3.87 2.66l-1.92 3.33c-.563.97-1.49 1.8-2.73 1.8-.18 0-.36-.02-.54-.05C1.19 8.02.583 6.04.583 4.8c0-.07.01-.14.02-.21-.36 1.01-.58 2.22-.58 3.54 0 3.99 3.01 7.25 6.75 7.25.33 0 .66-.02.98-.07 1.3-.2 2.5-1.04 3.25-2.42l.9-1.55c.29-.49.62-.93.99-1.32.74-.77 1.63-1.22 2.57-1.33.2-.02.4-.04.6-.04 1.81 0 3.3 1.03 4.14 2.53.2.35.4.7.56 1.05.74 1.59 1.13 3.24 1.13 4.81 0 1.25-.26 2.41-.74 3.48-.48 1.04-1.14 1.95-1.96 2.67-1.4.29-2.98.05-4.23-.46-.38-.15-.79-.05-1.08.24-.29.29-.42.7-.33 1.1.23.99.78 1.9 1.55 2.65.77.75 1.75 1.34 2.87 1.69a8.163 8.163 0 004.14-.1c1.2-.5 2.27-1.27 3.16-2.27a8.55 8.55 0 002.32-6.17c0-2.48-.99-4.83-2.65-6.57-.3-.32-.63-.6-1-.85l-.01-.01zM8 5.6h2.4v2.4H8zm3.2 0h2.4v2.4h-2.4zm-3.2-3.2h2.4v2.4H8zm3.2 0h2.4v2.4h-2.4zm3.2 0h2.4v2.4h-2.4z"/></svg>