<svg xmlns="http://www.w3.org/2000/svg" viewBox="0 0 256 256"><path fill="#F05032" d="m240.3 113.2-97-97c-4.5-4.5-11.8-4.5-16.4 0l-16.4 16.4c-4.5 4.5-4.5 11.8 0 16.4l49.2 49.2-28.9 28.9-49.2-49.2c-4.5-4.5-11.8-4.5-16.4 0L58.7 94.2c-4.5 4.5-4.5 11.8 0 16.4l97 97c4.5 4.5 11.8 4.5 16.4 0l16.4-16.4c4.5-4.5 4.5-11.8 0-16.4L139.3 126l49.2-49.2 35.5 35.5c4.5 4.5 11.8 4.5 16.4 0l16.4-16.4c4.5-4.6 4.5-11.8 0-16.4z"/><path fill="#F05032" d="M111.4 32.7c-10.7 0-19.3 8.7-19.3 19.3s8.7 19.3 19.3 19.3 19.3-8.7 19.3-19.3-8.7-19.3-19.3-19.3zm0 30.6c-6.2 0-11.3-5-11.3-11.3s5-11.3 11.3-11.3 11.3 5 11.3 11.3-5.1 11.3-11.3 11.3zM111.4 184c-10.7 0-19.3 8.7-19.3 19.3s8.7 19.3 19.3 19.3 19.3-8.7 19.3-19.3-8.7-19.3-19.3-19.3zm0 30.6c-6.2 0-11.3-5-11.3-11.3s5-11.3 11.3-11.3 11.3 5 11.3 11.3-5.1 11.3-11.3 11.3zM52 93.3c-10.7 0-19.3 8.7-19.3 19.3s8.7 19.3 19.3 19.3 19.3-8.7 19.3-19.3-8.7-19.3-19.3-19.3zm0 30.6c-6.2 0-11.3-5-11.3-11.3s5-11.3 11.3-11.3 11.3 5 11.3 11.3-5.1 11.3-11.3 11.3z"/></svg>