<svg xmlns="http://www.w3.org/2000/svg" viewBox="0 0 24 24" fill="currentColor"><path d="M23.366 9.684l-4.352-4.352a3.047 3.047 0 00-4.309 0l-1.031 1.031 4.352 4.352a.87.87 0 010 1.231l-4.352 4.352 1.031 1.031a3.047 3.047 0 004.309 0l4.352-4.352a3.047 3.047 0 000-4.309zm-8.704 7.465l-1.031 1.031a3.047 3.047 0 01-4.309 0L.634 9.496a3.047 3.047 0 010-4.309L4.985.835a3.047 3.047 0 014.309 0l1.031 1.031-4.352 4.352a.87.87 0 000 1.231l4.352 4.352zm-5.383-2.914a1.523 1.523 0 11.002-3.046 1.523 1.523 0 01-.002 3.046zm5.383-8.08a1.523 1.523 0 11.002-3.046 1.523 1.523 0 01-.002 3.046zM19.19 9.38a1.523 1.523 0 110-3.046 1.523 1.523 0 010 3.046z"/></svg>