<svg xmlns="http://www.w3.org/2000/svg" viewBox="0 0 256 256"><path d="M128 0C57.3 0 0 57.3 0 128c0 56.5 36.7 104.5 87.5 121.4.1.1 6.4 1.1 6.4-2.8 0-4.4 0-14.4.1-28.3 0-11.4-4.9-13.9-4.9-13.9-5.4-13.6-13.1-17.3-13.1-17.3-10.7-7.3.8-7.2.8-7.2 11.8.8 18 12.1 18 12.1 10.5 18 27.5 12.8 34.2 9.8 1.1-7.6 4.1-12.8 7.5-15.7-26.1-3-53.5-13.1-53.5-58.1 0-12.8 4.6-23.3 12.1-31.5-1.2-3-5.2-14.9.1-31.1 0 0 9.9-3.2 32.3 12.1 9.4-2.6 19.5-3.9 29.6-3.9s20.2 1.3 29.6 3.9c22.4-15.2 32.3-12.1 32.3-12.1 5.4 16.2 1.4 28.1.1 31.1 7.5 8.2 12.1 18.7 12.1 31.5 0 45.1-27.4 55.1-53.6 58 .9.8 4.2 7.2 4.2 14.5.1 10.5 0 24.3 0 27.6 0 4 6.5 3.9 6.5 2.8C219.3 232.5 256 184.5 256 128 256 57.3 198.7 0 128 0z" fill-rule="evenodd"/></svg>