<svg xmlns="http://www.w3.org/2000/svg" viewBox="0 0 256 256"><path fill="#E24329" d="m255.8 98.2-1.1-1.3-25-30.6c-2-2.5-5-4-8.2-4s-6.2 1.5-8.2 4l-25.1 30.7-1.1 1.3-70.3 86.4L46.3 98.2l-1.1-1.3-25-30.6c-2-2.5-5-4-8.2-4s-6.2 1.5-8.2 4L.2 96.9l-1.1 1.3c-2.5 3.1-2.5 7.7 0 10.8l70.4 86.4 46.2 56.7c3.1 3.8 8 6 12.9 6s9.8-2.2 12.9-6l46.2-56.7 70.4-86.4c2.5-3.1 2.5-7.7 0-10.8z"/><path fill="#FC6D26" d="M128 256c5 0 9.8-2.2 12.9-6L187.1 193.3H68.9l46.2 56.7c3.1 3.8 8 6 12.9 6z"/><path fill="#FCA326" d="m128 256 46.2-56.7H81.8L128 256zM46.3 98.2 1.1 165.3 116.8 98.2z"/><path fill="#E24329" d="M46.3 98.2 1.1 165.3l115.7-67.1zM209.7 98.2l45.2 67.1-115.7-67.1z"/></svg>