<svg xmlns="http://www.w3.org/2000/svg" viewBox="0 0 256 256"><path fill="#4285F4" d="M165.7 168.3c-1.3 1.9-3 3.5-4.9 4.8-6.1 4.2-13.8 6.5-22 6.5-16.1 0-29.6-9.1-35.1-22.1-3.3-7.8-3.3-17 0-24.8 5.5-13 19-22.1 35.1-22.1 8.2 0 15.8 2.3 22 6.5 1.9 1.3 3.6 2.9 4.9 4.8l-19.8 12.9c-1.8-1.5-4-2.4-6.3-2.4-6.1 0-10.5 5-10.5 10.7s4.4 10.7 10.5 10.7c2.4 0 4.5-.9 6.3-2.4l19.8 12.9z"/><path fill="#34A853" d="M211.3 133.5c0-1.8-.1-3.6-.4-5.4H138.8v26.1h40.6c-1.7 8.4-7 15.6-15.3 20.4l19.8 12.9c11.2-10.3 17.8-25.2 17.8-41.5l-.4-2.5z"/><path fill="#FBBC05" d="M103.7 156.4c-5.5 13-19 22.1-35.1 22.1-10.7 0-20.4-4.5-27-11.9l17.4-13.5c4 3.7 9.2 5.9 15 5.9 6.1 0 10.5-5 10.5-10.7s-4.4-10.7-10.5-10.7c-5.9 0-11.1 2.2-15 5.9L56.2 125c6.6-7.4 16.2-11.9 27-11.9 16.1 0 29.6 9.1 35.1 22.1 3.3 7.8 3.3 17 0 24.8l-15.6-3.6z"/><path fill="#EA4335" d="M138.8 84.1v27.2h-.1c-5.5-5-12.8-8.1-21-8.1-16.1 0-29.6 9.1-35.1 22.1-3.3 7.8-3.3 17 0 24.8l15.6 3.6 15.1-24.8c4-6.6 11.1-10.8 19.3-10.8 7.3 0 13.4 3.1 17.5 7.8l17-16.9c-6.1-5.7-14.1-9.1-22.9-9.1z"/></svg>