<svg xmlns="http://www.w3.org/2000/svg" viewBox="0 0 24 24" fill="currentColor"><path d="M16.14 3.429h-8.15c-3.13 0-5.83 2.37-6.24 5.46-.35 2.61.9 5.06 3.07 6.42 1.32.84 2.92 1.24 4.54 1.14-.54.66-1.23 1.2-2.07 1.55-1.92.83-4.1.6-5.88-.63l-.22-.16-3.7 3.7c.36.21.74.39 1.14.53 3.23 1.11 6.84.39 9.38-1.9 1.44-1.3 2.34-3.07 2.57-4.99a7.35 7.35 0 00-1.68-.1c-.42.02-.83.05-1.24.05-1.74 0-3.39-.5-4.82-1.42-1.3-1-2.22-2.38-2.6-3.95-.51-2.12.28-4.38 1.9-5.75C7.9 2.5 9.98 2 12.1 2c1.46 0 2.87.38 4.04 1.43v.01zm-3.04 2.86c-.46-.43-1.07-.68-1.72-.68-1.44 0-2.6 1.16-2.6 2.6s1.16 2.6 2.6 2.6c1.44 0 2.6-1.16 2.6-2.6 0-.64-.25-1.25-.68-1.72l-.2-.2zM12.1 12.1c2.12 0 4.08.77 5.6 2.12l.16.15 3.7-3.7c-.2-.24-.42-.47-.65-.69-3.23-3-7.9-3.4-11.66-1.1-1.68 1-3 2.55-3.66 4.35-.95 2.58-.5 5.56 1.25 7.69 1.05 1.28 2.5 2.22 4.1 2.66 2.52.7 5.25.3 7.4-1.12l.24-.16-3.7-3.7c-1.3.8-2.82 1.23-4.4 1.23s-3.1-.44-4.4-1.23c-2.16-1.3-3.43-3.6-3.43-6.17 0-2.58 1.27-4.88 3.43-6.18 1.3-.8 2.83-1.23 4.4-1.23z"/></svg>