<svg xmlns="http://www.w3.org/2000/svg" viewBox="0 0 256 256"><path fill="#02303A" d="M128 256c70.7 0 128-57.3 128-128S198.7 0 128 0 0 57.3 0 128s57.3 128 128 128z"/><path fill="#fff" d="M185.8 174.6c-4.4 4.5-9.3 6.9-14.8 6.9-5.1 0-9.6-1.9-13.4-5.6l-52-45.7c-1-2.1-1-4.2.1-6.1l11.4-23.7c1-2.1 2.9-3.4 5-3.4h70.3c2.9 0 5.4 2.4 5.4 5.4v31.4c0 2.2-1.3 4.2-3.4 5.1l-10 6.6c-2 .9-2.9 3.2-1.9 5.2l12.5 24.4c.9 2 0 3.8-1.5 4.9zm-49.2-83c-1.2-2.5-3.8-4-6.6-4h-28c-2.9 0-5.4 2.4-5.4 5.4v13.9c0 2.9 2.4 5.4 5.4 5.4h28c2.8 0 5.4-1.5 6.6-4l12.1-24.8c1-2.1.1-4.4-1.7-5.5z"/></svg>