<svg xmlns="http://www.w3.org/2000/svg" viewBox="0 0 256 256"><path fill="#0F1689" d="m173.9 146.1-45.9 20.3-45.9-20.3 45.9-103.6 45.9 103.6z"/><path fill="#0F1689" d="M128 221.9c-51.9 0-93.9-42-93.9-93.9s42-93.9 93.9-93.9 93.9 42 93.9 93.9-41.9 93.9-93.9 93.9zm0-175.9c-45.2 0-81.9 36.7-81.9 81.9s36.7 81.9 81.9 81.9 81.9-36.7 81.9-81.9-36.7-81.9-81.9-81.9z"/><path fill="#0F1689" d="M128 173.1c-2.3 0-4.6-.9-6.4-2.6L72.4 128l49.2-42.6h-54.6l-20.2 42.6 20.2 42.6h54.6l-49.2-42.6 49.2 42.6c1.8 1.7 4.1 2.6 6.4 2.6s4.6-.9 6.4-2.6l49.2-42.6-49.2 42.6-20.2-42.6h54.6l20.2-42.6-20.2-42.6h-54.6l49.2 42.6L128 173.1z"/></svg>