<svg xmlns="http://www.w3.org/2000/svg" viewBox="0 0 256 256"><path fill="#F7DF1E" d="M0 0h256v256H0z"/><path d="M72.2 200.5c3.5 5.8 9.8 9.3 17.5 9.3 7.8 0 12.6-2.9 12.6-14.5v-56.8h24.8v57.8c0 23.3-15.1 34.1-37.3 34.1-18.7 0-30-9.8-36.4-23.7l21.3-13.1c2.4 4.7 5.7 7.2 10.2 7.2 4.4 0 7.2-2.3 7.2-6.6 0-5.3-2.9-7.7-8.2-10.7-5.3-3-15.3-6.6-15.3-17.5 0-9.8 6.5-15.8 16.9-15.8 6.3 0 11.2 2.6 14.5 8.7l-20.2 12.4c-1.8-3.2-3.8-4.4-6.3-4.4-3.2 0-5.1 2-5.1 5.4 0 4.1 2.3 5.9 7.2 8.4 4.9 2.6 16.3 6.6 16.3 18.1zM153.1 199.1c4.4 3.8 8.8 5.7 14.5 5.7 8.1 0 13.1-3.2 13.1-12.8 0-9.6-5.4-12.8-17.8-18.1l-6.8-2.9c-10-4.4-16.3-9-16.3-21.6 0-11.2 8.7-19.3 22.1-19.3 9.3 0 16.3 3.5 21.3 8.7l-13.6 14.5c-3.2-2.3-5.7-3.5-8.7-3.5-4.7 0-7.2 2.3-7.2 6.6 0 5.1 2.9 7.2 11.8 11.2l6.8 2.9c12.6 5.4 18.9 11.5 18.9 23.1 0 14.8-10.7 22.1-26.1 22.1-13.1 0-21.3-4.7-25.8-10.7l14.2-14.2z"/></svg>