<svg xmlns="http://www.w3.org/2000/svg" viewBox="0 0 24 24" fill="currentColor"><path d="M0 0h24v24H0V0zm22.034 18.272c.39-.39.635-.93.635-1.532 0-.6-.245-1.142-.635-1.532-.39-.39-1.02-.635-1.532-.635-.602 0-1.142.245-1.532.635-.39.39-.635.93-.635 1.532 0 .6.245 1.142.635 1.532.39.39 1.02.635 1.532.635.602 0 1.142-.245 1.532-.635zM12.12 11.233c.316-.53.486-1.11.486-1.725 0-1.142-.45-2.1-.96-2.61l-3.3 3.3c.51.51 1.47.96 2.61.96.615 0 1.196-.17 1.725-.486zm-1.89-4.89c.99-1.02 2.4-1.74 3.99-1.74.602 0 1.175.093 1.71.27l-5.7 5.7c-.177-.535-.27-1.108-.27-1.71 0-1.59.72-3.003 1.74-3.99zm-2.1 8.372c-.39.39-.635.93-.635 1.532 0 .6.245 1.142.635 1.532.39.39.93.635 1.532.635.6 0 1.142-.245 1.532-.635.39-.39.635-.93.635-1.532 0-.6-.245-1.142-.635-1.532-.39-.39-.93-.635-1.532-.635-.6 0-1.142.245-1.532.635z"/></svg>