<svg xmlns="http://www.w3.org/2000/svg" viewBox="0 0 256 256"><path fill="#D24939" d="M128 0C57.3 0 0 57.3 0 128s57.3 128 128 128 128-57.3 128-128S198.7 0 128 0z"/><path fill="#fff" d="M128 42.7c-47.1 0-85.3 38.2-85.3 85.3s38.2 85.3 85.3 85.3 85.3-38.2 85.3-85.3-38.2-85.3-85.3-85.3z"/><path fill="#D24939" d="M128 64c-35.3 0-64 28.7-64 64s28.7 64 64 64 64-28.7 64-64-28.7-64-64-64zm-32 53.3h-10.7v-21.3H106v-10.7h-21.3v42.7h10.7v-10.7zM160 117.3c0-4.7-3.8-8.5-8.5-8.5h-12.8c-4.7 0-8.5 3.8-8.5 8.5v21.3c0 4.7 3.8 8.5 8.5 8.5h12.8c4.7 0 8.5-3.8 8.5-8.5v-21.3z"/><circle fill="#D24939" cx="140" cy="85.3" r="10.7"/><circle fill="#D24939" cx="100" cy="85.3" r="10.7"/></svg>