<svg xmlns="http://www.w3.org/2000/svg" viewBox="0 0 256 256"><path fill="#39A5DC" d="M128 0C57.3 0 0 57.3 0 128s57.3 128 128 128 128-57.3 128-128S198.7 0 128 0z"/><path fill="#fff" d="M154.7 90.7c-13.6-13.6-35.6-13.6-49.2 0-13.6 13.6-13.6 35.6 0 49.2 13.6 13.6 35.6 13.6 49.2 0 13.6-13.6 13.6-35.6 0-49.2zm-4.9 44.3c-10.9 10.9-28.5 10.9-39.4 0-10.9-10.9-10.9-28.5 0-39.4 10.9-10.9 28.5-10.9 39.4 0 10.9 10.9 10.9 28.5 0 39.4z"/><path fill="#fff" d="M128 90.7v10.7c-10.4 0-18.9 8.5-18.9 18.9s8.5 18.9 18.9 18.9v10.7c-16.3 0-29.6-13.3-29.6-29.6s13.3-29.6 29.6-29.6z"/></svg>