<svg xmlns="http://www.w3.org/2000/svg" viewBox="0 0 256 256"><path fill="#326CE5" d="M128 22.6 32 75.7v104.6l96 53.1 96-53.1V75.7L128 22.6zm73.7 149.3L128 206.8l-73.7-34.9V83.8L128 49.1l73.7 34.7v88.1z"/><path fill="#326CE5" d="M128 107.8c-11.1 0-20.2 9-20.2 20.2s9 20.2 20.2 20.2 20.2-9 20.2-20.2-9.1-20.2-20.2-20.2zm0 31.9c-6.5 0-11.7-5.2-11.7-11.7s5.2-11.7 11.7-11.7 11.7 5.2 11.7 11.7-5.3 11.7-11.7 11.7zM93.3 93.3l-13.5 13.5c-1.3 1.3-1.3 3.3 0 4.5l13.5 13.5 4.5-4.5-11.2-11.2 11.2-11.2-4.5-4.6zm69.4 0-4.5 4.5 11.2 11.2-11.2 11.2 4.5 4.5 13.5-13.5c1.3-1.3 1.3-3.3 0-4.5l-13.5-13.5zM128 66.5l-13.5 13.5 4.5 4.5 11.2-11.2 11.2 11.2 4.5-4.5-13.5-13.5c-1.2-1.3-3.3-1.3-4.4 0zm0 123-13.5-13.5 4.5-4.5 11.2 11.2 11.2-11.2 4.5 4.5-13.5 13.5c-1.2 1.3-3.3 1.3-4.4 0z"/></svg>