<svg xmlns="http://www.w3.org/2000/svg" viewBox="0 0 24 24" fill="currentColor"><path d="M9.1,3.4C8.7,4.3,8.4,5.2,8.1,6c-0.2,0.6-0.2,1.3-0.2,1.9c0,1,0.2,2.1,0.6,3c0.4,1.1,1.1,2.1,1.9,2.8c0.2,0.2,0.4,0.3,0.7,0.4c0.5,0.1,1-0.2,1.2-0.6c0.1-0.2,0.1-0.4,0.1-0.6c0-0.4-0.1-0.8-0.3-1.1c-0.4-0.7-1-1.3-1.3-2.1c-0.4-0.8-0.6-1.7-0.7-2.6c0-0.6,0.1-1.2,0.2-1.8C10.7,5.5,11,5,11.3,4.4C11.5,4.2,11.5,4,11.5,3.7c-0.1-0.4-0.4-0.7-0.8-0.7C10.1,3,9.6,3.1,9.1,3.4z M15,3c-0.4,0-0.7,0.3-0.8,0.7c0,0.3,0.1,0.5,0.2,0.7c0.3,0.6,0.6,1.1,0.8,1.8c0.1,0.6,0.2,1.2,0.2,1.8c-0.1,0.9-0.3,1.8-0.7,2.6c-0.3,0.8-0.9,1.4-1.3,2.1c-0.2,0.3-0.3,0.7-0.3,1.1c0,0.2,0,0.4,0.1,0.6c0.2,0.4,0.7,0.7,1.2,0.6c0.3-0.1,0.5-0.2,0.7-0.4c0.8-0.7,1.5-1.7,1.9-2.8c0.4-0.9,0.6-2,0.6-3c0-0.6,0-1.3-0.2-1.9c-0.3-0.8-0.6-1.7-1-2.6C15.4,3.1,15.2,3,15,3z M7,11.8c0.1,1.5,0.6,2.9,1.3,4.2c0.4,0.6,0.5,1.4,0.5,2.1c-0.2,1.2-1,2.2-2.1,2.6c-1.3,0.5-2.7,0.2-3.8-0.6c-1.3-0.9-2.1-2.4-2.2-4C1.1,14.6,1.9,13,3,12c0.2-0.2,0.4-0.3,0.7-0.3C4.9,11.7,6,11.7,7,11.8z M17,11.8c-1,0-2.1-0.1-3.2,0c-1.1,0.2-2,1.2-2.1,2.4c-0.1,1.2,0.6,2.3,1.6,2.8c1,0.5,2.1,0.5,3.1,0.2c0.6-0.2,1.1-0.5,1.6-0.9c0.7-0.6,1.3-1.4,1.6-2.3c0.3-0.8,0.3-1.7,0.2-2.6c0-0.4-0.1-0.7-0.2-1.1C19.1,12.3,18.1,11.8,17,11.8z"/></svg>