<svg xmlns="http://www.w3.org/2000/svg" viewBox="0 0 256 256"><path fill="#FCC624" d="M112 216.7c-5 0-9.8-1.5-13.9-4.3l-20.9-14.2c-5.8-3.9-12.8-5-19.8-3-8.8 2.5-16.2 9-19.4 17.9-3.2 8.9-1.3 18.9 5.1 25.8 6.4 6.9 15.6 10.4 25.5 9.4 16.5-1.7 30.2-11.8 38.3-25.1 5.1-8.4 6.4-18.1 3.9-27.5-1.3-5-4.5-9.3-8.8-12.3z"/><path fill="#000" d="M123.6 156c-1.2 1-1.8 2.4-1.8 3.8 0 1.5.6 2.9 1.8 3.9 1.1.9 2.5 1.5 4 1.5s2.9-.6 4-1.5c1.1-.9 1.8-2.3 1.8-3.9 0-1.4-.6-2.8-1.8-3.8-1.1-1-2.5-1.5-4-1.5s-2.9.5-4 1.5zm-50.5 25.1c-4.4-4.8-10.9-7-17.7-5.9-5.1.8-9.4 3.7-12.1 8.2-2.7 4.5-3.5 9.8-2.2 15 .8 3.3 2.5 6.3 4.9 8.7 3.9 3.9 8.9 6 14.2 6 8 0 15.1-3.6 20.2-10 4.1-5.1 5.9-11.7 4.9-18.3-1-6.7-4.4-12.6-12.2-13.7z"/><path fill="#6A4B29" d="M211.8 191.1c-13.8 1.1-26.6-4.6-35.3-14.7-6.9-7.9-10.8-18-10.8-28.7 0-1.8.1-3.5.4-5.3 1.1-6.4 4.1-12.4 8.7-17.5l-.2-.1c-1.8-1.5-3.8-2.7-5.9-3.8l-1.3-.7-1.1-.6c-3.1-1.7-6.3-3-9.7-4.1-13-4.1-27.2-4-40.1.2-11.4 3.7-21.7 10.3-29.6 18.9-8.4 9.1-14.2 20.5-16.7 33.1-1.2 5.8-1.6 11.8-1.1 17.8.6 7.4 2.8 14.6 6.5 21.3 6.9 12.6 17.4 22.3 30.1 27.6 11.2 4.5 23.3 5.4 35.1 2.4 12.8-3.2 24.6-10.4 33.9-20.4 8.5-9.1 14.2-20.6 16.2-32.9.2-1 .3-1.9.4-2.9.2-1.3.2-2.6.2-3.9 0-.8 0-1.7-.1-2.5-.3-2.6-.9-5.2-1.8-7.7-.2-.7-.5-1.4-.8-2.1l-.1-.2c-3.2-6.5-7.9-12.2-13.7-16.7l.1.2c-1.5-.8-3-1.6-4.5-2.4-10-5.5-21.5-8.3-33.6-8.3-11.2 0-21.9 2.5-31.6 6.9-10.4 4.7-19 11.5-25.1 19.8-11.3 15.3-17.2 34.5-17.2 55 0 2.2.1 4.5.4 6.7 1 8.5 3.3 16.6 6.7 24.1 4.2 9.1 9.9 16.9 16.7 23.3 7.8 7.3 17 12.9 27.2 16.4 1.2.4 2.5.8 3.7 1.2.7.2 1.4.4 2.1.6 3.9 1.4 8 2.5 12.1 3.4 9.1 1.9 18.6 2.9 28.3 2.9 13.3 0 26-2.9 37.3-8.1 1.9-.9 3.8-1.8 5.6-2.8l.2-.1c1.2-.7 2.4-1.4 3.5-2.2.3-.2.6-.4.9-.6.7-.4 1.3-.9 2-1.3.1 0 .1-.1.2-.1 1.1-.7 2.2-1.4 3.3-2.1.6-.4 1.1-.8 1.7-1.2l.2-.2c9.5-6.5 17.1-15.6 21.8-26.2 3-6.9 4.7-14.5 4.7-22.5 0-9.2-2.1-17.9-6-25.5-4.4-8.4-10.4-15.5-17.6-20.9-2.6-1.9-5.3-3.6-8.2-5.1z"/></svg>