<svg xmlns="http://www.w3.org/2000/svg" viewBox="0 0 256 256"><path fill="#47A248" d="M128 0C57.3 0 0 57.3 0 128s57.3 128 128 128 128-57.3 128-128S198.7 0 128 0zm-23.7 206.9c-29.2-16.7-47.5-48.2-47.5-83.3 0-5.6.5-11.1 1.5-16.4 1-5.3 2.4-10.5 4.2-15.4 1.8-4.9 3.9-9.6 6.3-14 3.7-6.8 8.4-12.8 13.9-17.8l-1.1-.6c-12.6-7.3-20.9-20.4-20.9-35.3 0-22.3 18.1-40.4 40.4-40.4 12.3 0 23.3 5.5 30.5 13.9l-14.8 25.7c-2.2-2.3-5.3-3.7-8.7-3.7-7.8 0-14.2 6.3-14.2 14.2s6.3 14.2 14.2 14.2c5.9 0 11.1-3.6 13.2-8.7l16.1 9.3c-4.4 10-14.2 16.7-25.7 16.7-5.5 0-10.7-1.5-15.1-4.2l-5.6 11.5c-4.9 10-7.6 21-7.6 32.5 0 26.6 15.6 49.6 38.3 59.8l-8.2 14.2z"/><path fill="#fff" d="m142 121.2-8.4 17.3c-.6 1.2-.6 2.6 0 3.8.6 1.2 1.7 2 3 2h25.7c1.3 0 2.4-.8 3-2 .6-1.2.6-2.6 0-3.8l-8.4-17.3c-.6-1.2-1.8-2-3-2h-12.1c-1.3 0-2.5.8-3.1 2z"/></svg>