<svg xmlns="http://www.w3.org/2000/svg" viewBox="0 0 24 24" fill="currentColor"><path d="M12.012 24c-2.484 0-4.74-.924-6.48-2.664-3.528-3.528-3.6-9.156-.156-12.864l.156-.156c.156-.156.312-.288.48-.42.024-.012.048-.024.072-.036C7.836 6.324 9.804 5.34 12 5.34c2.196 0 4.176.984 5.928 2.532.024.012.048.024.072.036.168.132.324.264.48.42l.156.156c3.444 3.708 3.372 9.336-.156 12.864C16.764 23.076 14.496 24 12.012 24ZM12 0C10.08 6.408 6.552 9.06 0 10.332 6.552 11.592 10.08 14.244 12 20.652 13.92 14.244 17.448 11.592 24 10.332 17.448 9.06 13.92 6.408 12 0Z"/></svg>