<svg xmlns="http://www.w3.org/2000/svg" viewBox="0 0 256 256"><path fill="#61DAFB" d="M128 0C57.3 0 0 57.3 0 128s57.3 128 128 128 128-57.3 128-128S198.7 0 128 0z"/><path fill="#fff" d="M128 58.7c-36.9 0-66.8 29.9-66.8 66.8s29.9 66.8 66.8 66.8 66.8-29.9 66.8-66.8-29.9-66.8-66.8-66.8zm0 122.3c-30.6 0-55.5-24.9-55.5-55.5s24.9-55.5 55.5-55.5 55.5 24.9 55.5 55.5-24.9 55.5-55.5 55.5z"/><ellipse fill="#fff" ry="29" rx="66.8" transform="rotate(60 128 128)"/><ellipse fill="#fff" ry="29" rx="66.8" transform="rotate(120 128 128)"/><ellipse fill="#fff" ry="29" rx="66.8" transform="rotate(180 128 128)"/><circle fill="#fff" cx="128" cy="128" r="10.7"/></svg>