<svg xmlns="http://www.w3.org/2000/svg" viewBox="0 0 256 256"><path fill="#007ACC" d="M0 0h256v256H0z"/><path fill="#fff" d="M64 64h128v128H64z"/><path d="M155.8 141.2c2.4 2 5.1 3.2 8.1 3.2 4.1 0 7-2 7-5.1 0-3.8-2.6-5.1-8.1-7.2l-2.6-.9c-7.2-2.9-11.5-6.3-11.5-13.9 0-7.5 5.8-12.8 14.8-12.8 6.1 0 10.9 2.3 14.2 5.7l-9.2 9.6c-2.1-1.5-3.8-2.3-5.8-2.3-2.6 0-4.1 1.5-4.1 3.8 0 3.2 1.8 4.4 7.2 6.5l2.6.9c8.4 3.5 12.6 7.5 12.6 15.1 0 8.9-6.9 14.8-17.5 14.8-8.4 0-14.2-3.2-18.4-7.2l9-9.3zM108.4 153.3h16.4V111h26V96H98v15h10.4v42.3z"/></svg>